<?xml version="1.0" encoding="utf-8"?>
<!-- Generator: Adobe Illustrator 17.0.0, SVG Export Plug-In . SVG Version: 6.00 Build 0)  -->
<!DOCTYPE svg PUBLIC "-//W3C//DTD SVG 1.1//EN" "http://www.w3.org/Graphics/SVG/1.1/DTD/svg11.dtd">
<svg version="1.1" id="Capa_1" xmlns="http://www.w3.org/2000/svg" xmlns:xlink="http://www.w3.org/1999/xlink" x="0px" y="0px"
	 width="185.254px" height="47.456px" viewBox="0 0 185.254 47.456" enable-background="new 0 0 185.254 47.456"
	 xml:space="preserve">
<g>
	<g>
		<path fill="#FFFFFF" d="M45.918,20.327l-8.515-1.923c-3.237-0.75-6.963-1.744-6.963-4.847c0-3.111,2.613-5.286,7.334-5.286
			c9.509,0,8.641,6.651,13.362,6.651c2.487,0,4.662-1.492,4.662-4.038c0-5.968-9.383-10.445-17.341-10.445
			c-8.641,0-17.838,3.727-17.838,13.674c0,4.788,1.678,9.88,10.942,12.241L43.06,29.28c3.482,0.868,4.35,2.858,4.35,4.662
			c0,2.984-2.925,5.902-8.203,5.902c-10.318,0-8.893-8.077-14.424-8.077c-2.487,0-4.283,1.737-4.283,4.224
			c0,4.848,5.775,11.313,18.707,11.313c12.301,0,18.395-6.028,18.395-14.112C57.603,27.974,55.242,22.443,45.918,20.327z"/>
		<path fill="#FFFFFF" d="M95.826,1.494H66.363c-2.925,0-5.278,1.492-5.278,4.291s2.353,4.291,5.278,4.291h9.636v31.883
			c0,3.044,1.982,5.093,5.092,5.093s5.1-2.049,5.1-5.093V10.076h9.636c2.917,0,5.278-1.492,5.278-4.291S98.743,1.494,95.826,1.494z"
			/>
		<path fill="#FFFFFF" d="M137.211,38.04h-20.199V27.231h17.282c2.672,0,4.781-0.75,4.781-3.92s-2.108-3.912-4.781-3.912h-17.282
			V9.697h19.702c2.984,0,5.159-0.868,5.159-4.098c0-3.229-2.175-4.105-5.159-4.105h-23.926c-3.608,0-5.968,1.433-5.968,5.968v32.819
			c0,4.536,2.361,5.968,5.968,5.968h24.423c2.984,0,5.159-0.876,5.159-4.105C142.371,38.908,140.196,38.04,137.211,38.04z"/>
		<g>
			<path id="XMLID_1_" fill="#FFFFFF" d="M163.019,29.038c-0.253,0.136-0.546,0.127-0.77-0.039
				c-0.088-0.068-0.166-0.146-0.205-0.253h-0.02c0.049,0.107,0.117,0.205,0.234,0.292c0.419,0.351,1.335-0.175,1.51-0.273
				L163.019,29.038z"/>
			<path fill="#FFFFFF" d="M184.749,40.39l-6.509-18.076v-0.01l-0.478-1.335l-3.79-10.524l-0.107-0.292l-1.725-4.794
				C171.029,2.27,168.652,0,165.231,0c-1.169,0-2.241,0.302-3.177,0.828c-1.705,0.945-2.992,2.621-3.713,4.531l-1.705,4.629
				l-2.641,7.133l-8.399,22.704l-0.215,0.565c-0.107,0.322-0.438,1.111-0.438,2.144c0,0.848,0.244,1.627,0.653,2.28
				c0.283,0.468,0.653,0.877,1.081,1.208c0.448,0.351,0.955,0.624,1.51,0.799c0.477,0.146,0.994,0.234,1.52,0.234
				c0.604,0,1.14-0.078,1.617-0.214c1.618-0.468,2.534-1.676,3.031-3.206l1.929-5.993h13.096l-0.819-2.475l-2.124-6.422
				l-0.292-0.857l-2.348,0.857c0,0,0,0.01-0.029,0.02c-0.175,0.098-1.091,0.624-1.51,0.273c-0.117-0.088-0.185-0.185-0.234-0.292
				c-0.01-0.02-0.01-0.029-0.01-0.049c0,0-0.01-0.01-0.01-0.019c-0.01-0.01-0.01-0.02-0.02-0.039c0,0,0-0.02-0.01-0.029
				c0-0.02,0-0.039-0.01-0.049c0-0.02,0-0.029-0.01-0.049v-0.078c0-0.02-0.01-0.039-0.01-0.049c0-0.039,0.01-0.068,0.01-0.107
				c0-0.107,0.019-0.195,0.029-0.234c0-0.01,0-0.01,0.01-0.02v-0.01l2.183-13.808v-0.01l0.127-0.819
				c0.049-0.292,0.263-0.526,0.546-0.594c0.283-0.078,0.565,0.02,0.75,0.263l1.16,1.559l0.399,0.536l0.224,0.302l4.434,5.963
				l0.487,0.653l2.163,2.933c0.175,0.224,0.195,0.526,0.078,0.78c-0.127,0.253-0.38,0.409-0.653,0.409l-1.588,0.175l-0.487,0.068
				l-1.16,0.127l1.16,3.615l0.487,1.501l0.965,3.021l0.536,1.686l0.117,0.351l0.039,0.176l0.214,0.74h0.029v0.01l1.929,6.041
				c0.497,1.491,1.403,2.68,3.04,3.147c0.487,0.136,1.033,0.214,1.647,0.214c0.487,0,0.974-0.078,1.423-0.214
				c1.735-0.536,3.04-2.056,3.04-4.054C185.285,42.348,185.149,41.433,184.749,40.39z M165.222,10.407
				c-0.068,0.019-0.127,0.049-0.195,0.078l0.136-0.409h0.137l0.088,0.263C165.329,10.358,165.27,10.378,165.222,10.407z"/>
			<path fill="#FFFFFF" d="M161.986,28.044l-0.029,0.234C161.957,28.171,161.977,28.083,161.986,28.044z"/>
			<path fill="#FFFFFF" d="M161.986,28.609c0,0.01,0,0.029,0,0.029s0-0.02-0.01-0.029H161.986z"/>
			<path fill="#FFFFFF" d="M162.045,28.746h-0.02c-0.01-0.02-0.01-0.029-0.01-0.049C162.016,28.707,162.025,28.726,162.045,28.746z"
				/>
			<path fill="#FFFFFF" d="M165.387,10.339c-0.058,0.019-0.117,0.039-0.166,0.068c-0.068,0.019-0.127,0.049-0.195,0.078l0.136-0.409
				h0.137L165.387,10.339z"/>
		</g>
		<path fill="#FFFFFF" d="M161.012,28.609c0,0.01,0,0.029,0,0.029s0-0.02-0.01-0.029c0-0.02,0-0.039-0.01-0.049
			C160.992,28.57,161.002,28.59,161.012,28.609z"/>
		<path fill="#FFFFFF" d="M161.022,28.024l-0.039,0.253c0-0.107,0.019-0.195,0.029-0.234
			C161.012,28.034,161.012,28.034,161.022,28.024z"/>
		<polyline fill="#FFFFFF" points="173.209,37.649 173.227,37.649 174.298,37.649 		"/>
		<line fill="#FFFFFF" x1="168.409" y1="37.649" x2="167.587" y2="37.649"/>
		<path fill="#FFFFFF" d="M5.185,1.09C2.082,1.08,0.087,3.131,0.077,6.174l-0.108,36.174c-0.009,3.044,1.974,5.098,5.077,5.108
			c3.11,0.009,5.106-2.034,5.115-5.077L10.27,6.205C10.279,3.161,8.296,1.099,5.185,1.09z"/>
	</g>
</g>
</svg>
